<svg width="36" height="36" viewBox="0 0 36 36" fill="none" xmlns="http://www.w3.org/2000/svg">
<path d="M18 3C9.72 3 3 9.72 3 18C3 26.28 9.72 33 18 33C26.28 33 33 26.28 33 18C33 9.72 26.28 3 18 3ZM24.96 13.2C24.735 15.57 23.76 21.33 23.265 23.985C23.055 25.11 22.635 25.485 22.245 25.53C21.375 25.605 20.715 24.96 19.875 24.405C18.555 23.535 17.805 22.995 16.53 22.155C15.045 21.18 16.005 20.64 16.86 19.77C17.085 19.545 20.925 16.05 21 15.735C21.0104 15.6873 21.009 15.6378 20.996 15.5907C20.9829 15.5437 20.9585 15.5005 20.925 15.465C20.835 15.39 20.715 15.42 20.61 15.435C20.475 15.465 18.375 16.86 14.28 19.62C13.68 20.025 13.14 20.235 12.66 20.22C12.12 20.205 11.1 19.92 10.335 19.665C9.39 19.365 8.655 19.2 8.715 18.675C8.745 18.405 9.12 18.135 9.825 17.85C14.205 15.945 17.115 14.685 18.57 14.085C22.74 12.345 23.595 12.045 24.165 12.045C24.285 12.045 24.57 12.075 24.75 12.225C24.9 12.345 24.945 12.51 24.96 12.63C24.945 12.72 24.975 12.99 24.96 13.2Z" fill="white"/>
</svg>
