<svg width="36" height="36" viewBox="0 0 36 36" fill="none" xmlns="http://www.w3.org/2000/svg">
<path d="M4.67227 4.6C2.57227 6.72 2.57227 10.11 2.57227 16.9V18.1C2.57227 24.88 2.57227 28.27 4.67227 30.4C6.79227 32.5 10.1823 32.5 16.9723 32.5H18.1723C24.9523 32.5 28.3423 32.5 30.4723 30.4C32.5723 28.28 32.5723 24.89 32.5723 18.1V16.9C32.5723 10.12 32.5723 6.73 30.4723 4.6C28.3523 2.5 24.9623 2.5 18.1723 2.5H16.9723C10.1923 2.5 6.80227 2.5 4.67227 4.6ZM7.63227 11.63H11.0723C11.1823 17.35 13.7023 19.77 15.7023 20.27V11.63H18.9323V16.56C20.9023 16.35 22.9823 14.1 23.6823 11.62H26.9023C26.6395 12.9037 26.115 14.1194 25.3614 15.1914C24.6078 16.2633 23.6413 17.1683 22.5223 17.85C23.7713 18.4714 24.8744 19.3507 25.7587 20.4298C26.643 21.5089 27.2884 22.7632 27.6523 24.11H24.1023C23.3423 21.74 21.4423 19.9 18.9323 19.65V24.11H18.5323C11.6923 24.11 7.79226 19.43 7.63227 11.63Z" fill="white"/>
</svg>
