<svg width="16" height="16" viewBox="0 0 16 16" fill="none" xmlns="http://www.w3.org/2000/svg">
<g opacity="0.8">
<path d="M8.00033 11.3334C8.35395 11.3334 8.69309 11.1929 8.94313 10.9428C9.19318 10.6928 9.33366 10.3536 9.33366 10C9.33366 9.6464 9.19318 9.30726 8.94313 9.05721C8.69309 8.80716 8.35395 8.66669 8.00033 8.66669C7.6467 8.66669 7.30757 8.80716 7.05752 9.05721C6.80747 9.30726 6.66699 9.6464 6.66699 10C6.66699 10.3536 6.80747 10.6928 7.05752 10.9428C7.30757 11.1929 7.6467 11.3334 8.00033 11.3334ZM12.0003 5.33335C12.3539 5.33335 12.6931 5.47383 12.9431 5.72388C13.1932 5.97393 13.3337 6.31307 13.3337 6.66669V13.3334C13.3337 13.687 13.1932 14.0261 12.9431 14.2762C12.6931 14.5262 12.3539 14.6667 12.0003 14.6667H4.00033C3.6467 14.6667 3.30756 14.5262 3.05752 14.2762C2.80747 14.0261 2.66699 13.687 2.66699 13.3334V6.66669C2.66699 6.31307 2.80747 5.97393 3.05752 5.72388C3.30756 5.47383 3.6467 5.33335 4.00033 5.33335H4.66699V4.00002C4.66699 3.11597 5.01818 2.26812 5.6433 1.643C6.26842 1.01788 7.11627 0.666687 8.00033 0.666687C8.43807 0.666687 8.87152 0.752906 9.27594 0.920422C9.68036 1.08794 10.0478 1.33347 10.3573 1.643C10.6669 1.95253 10.9124 2.31999 11.0799 2.72441C11.2474 3.12883 11.3337 3.56228 11.3337 4.00002V5.33335H12.0003ZM8.00033 2.00002C7.46989 2.00002 6.96118 2.21073 6.58611 2.58581C6.21104 2.96088 6.00033 3.46959 6.00033 4.00002V5.33335H10.0003V4.00002C10.0003 3.46959 9.78961 2.96088 9.41454 2.58581C9.03947 2.21073 8.53076 2.00002 8.00033 2.00002Z" fill="white"/>
</g>
</svg>
