<svg width="16" height="16" viewBox="0 0 16 16" fill="none" xmlns="http://www.w3.org/2000/svg">
<g opacity="0.8">
<path d="M8.00033 2.66663C8.70757 2.66663 9.38585 2.94758 9.88594 3.44767C10.386 3.94777 10.667 4.62605 10.667 5.33329C10.667 6.04054 10.386 6.71881 9.88594 7.21891C9.38585 7.71901 8.70757 7.99996 8.00033 7.99996C7.29308 7.99996 6.6148 7.71901 6.11471 7.21891C5.61461 6.71881 5.33366 6.04054 5.33366 5.33329C5.33366 4.62605 5.61461 3.94777 6.11471 3.44767C6.6148 2.94758 7.29308 2.66663 8.00033 2.66663ZM8.00033 9.33329C10.947 9.33329 13.3337 10.5266 13.3337 12V13.3333H2.66699V12C2.66699 10.5266 5.05366 9.33329 8.00033 9.33329Z" fill="white"/>
</g>
</svg>
